HIERARCHY
ROOT Hips
{
	OFFSET	0.00	0.00	0.00
	CHANNELS 6 Xposition Yposition Zposition Zrotation Xrotation Yrotation
	JOINT LeftUpLeg
	{
		OFFSET	 0.126116	-0.014019	-0.065224
		CHANNELS 3 Zrotation Xrotation Yrotation
		JOINT LeftLeg
		{
			OFFSET	 0.000000	 0.000000	 0.569914
			CHANNELS 3 Zrotation Xrotation Yrotation
			JOINT LeftFoot
			{
				OFFSET	 0.000000	 0.000000	 0.544423
				CHANNELS 3 Zrotation Xrotation Yrotation
				JOINT LeftToeBase
				{
					OFFSET	 0.000000	 0.000000	 0.207117
					CHANNELS 3 Zrotation Xrotation Yrotation
					End Site
					{
						OFFSET	 0.000000	 0.000000	 0.207117
					}
				}
			}
		}
	}
	JOINT RightUpLeg
	{
		OFFSET	-0.124023	-0.008373	-0.065224
		CHANNELS 3 Zrotation Xrotation Yrotation
		JOINT RightLeg
		{
			OFFSET	 0.000000	 0.000000	 0.570047
			CHANNELS 3 Zrotation Xrotation Yrotation
			JOINT RightFoot
			{
				OFFSET	 0.000000	 0.000000	 0.544354
				CHANNELS 3 Zrotation Xrotation Yrotation
				JOINT RightToeBase
				{
					OFFSET	 0.000000	 0.000000	 0.207540
					CHANNELS 3 Zrotation Xrotation Yrotation
					End Site
					{
						OFFSET	 0.000000	 0.000000	 0.207540
					}
				}
			}
		}
	}
	JOINT Spine
	{
		OFFSET	 0.000184	-0.007763	 0.117403
		CHANNELS 3 Zrotation Xrotation Yrotation
		JOINT Spine1
		{
			OFFSET	 0.000000	 0.000000	 0.137269
			CHANNELS 3 Zrotation Xrotation Yrotation
			JOINT Spine2
			{
				OFFSET	 0.000000	 0.000000	 0.156879
				CHANNELS 3 Zrotation Xrotation Yrotation
				JOINT LeftShoulder
				{
					OFFSET	 0.080501	-0.002496	 0.160144
					CHANNELS 3 Zrotation Xrotation Yrotation
					JOINT LeftArm
					{
						OFFSET	 0.000000	 0.000000	 0.164363
						CHANNELS 3 Zrotation Xrotation Yrotation
						JOINT LeftForeArm
						{
							OFFSET	 0.000000	 0.000000	 0.364576
							CHANNELS 3 Zrotation Xrotation Yrotation
							JOINT LeftHand
							{
								OFFSET	 0.000000	 0.000000	 0.360812
								CHANNELS 3 Zrotation Xrotation Yrotation
								JOINT LeftHandIndex1
								{
									OFFSET	 0.000000	 0.000000	 0.086006
									CHANNELS 3 Zrotation Xrotation Yrotation
									JOINT LeftHandIndex2
									{
										OFFSET	 0.000000	 0.000000	 0.047236
										CHANNELS 3 Zrotation Xrotation Yrotation
										JOINT LeftHandIndex3
										{
											OFFSET	-0.004284	-0.000551	 0.038166
											CHANNELS 3 Zrotation Xrotation Yrotation
											End Site
											{
												OFFSET	-0.004284	-0.000551	 0.038166
											}
										}
									}
								}
							}
						}
					}
				}
				JOINT Neck
				{
					OFFSET	 0.000000	 0.000000	 0.176489
					CHANNELS 3 Zrotation Xrotation Yrotation
					JOINT Head
					{
						OFFSET	 0.000000	-0.001747	 0.077940
						CHANNELS 3 Zrotation Xrotation Yrotation
						End Site
						{
							OFFSET	 0.000000	-0.001747	 0.077940
						}
					}
				}
				JOINT RightShoulder
				{
					OFFSET	-0.080363	 0.000306	 0.159706
					CHANNELS 3 Zrotation Xrotation Yrotation
					JOINT RightArm
					{
						OFFSET	 0.000000	 0.000000	 0.164196
						CHANNELS 3 Zrotation Xrotation Yrotation
						JOINT RightForeArm
						{
							OFFSET	 0.000000	 0.000000	 0.365611
							CHANNELS 3 Zrotation Xrotation Yrotation
							JOINT RightHand
							{
								OFFSET	 0.000000	 0.000000	 0.360648
								CHANNELS 3 Zrotation Xrotation Yrotation
								JOINT RightHandIndex1
								{
									OFFSET	 0.000000	 0.000000	 0.069977
									CHANNELS 3 Zrotation Xrotation Yrotation
									JOINT RightHandIndex2
									{
										OFFSET	 0.000000	 0.000000	 0.052305
										CHANNELS 3 Zrotation Xrotation Yrotation
										JOINT RightHandIndex3
										{
											OFFSET	 0.009002	-0.000782	 0.042196
											CHANNELS 3 Zrotation Xrotation Yrotation
											End Site
											{
												OFFSET	 0.009002	-0.000782	 0.042196
											}
										}
									}
								}
							}
						}
					}
				}
			}
		}
	}
}
MOTION
Frames:    11
Frame Time: 0.03333334
-9.280559	-31.673310	 0.901058	-34.773590	 9.341839	 3.071513	 5.561990	-20.500550	 175.419000	-4.313159	-36.406460	-1.067344	-1.220375	 83.556160	-0.538778	-2.331574	 36.697080	-0.190386	-1.892416	-22.416080	-178.948200	-2.009680	-40.265220	-0.907879	-1.527374	 86.786360	 0.798993	 2.393936	 25.994420	-0.051009	 7.942550	 4.468030	-1.616357	 13.436570	 3.028658	-1.961436	 15.782910	 1.257563	 0.876594	-101.428000	 88.594860	-167.682300	 54.293280	 68.164240	-64.134350	-4.845691	-4.288043	-17.533850	 7.922956	-2.265027	-5.307045	-2.167567	-11.297740	 6.769702	-5.213516	-0.193813	 3.566525	-1.378229	 35.397820	-2.634230	 0.743605	 1.376436	 0.656829	 4.325297	 2.309323	 0.021479	 96.639520	 87.905940	 170.206700	-51.152660	 75.703800	 64.496090	-2.184214	-12.733570	 23.207070	-25.898810	-3.191221	 9.566710	-7.406704	-4.232033	-37.037540	 5.070815	-0.697434	-9.399699	-2.350882	 35.473990	 5.254307
-9.284230	-31.675350	 0.900391	-34.557090	 9.044803	 2.948881	 5.427250	-20.157600	 175.379000	-4.299005	-36.501150	-1.144061	-1.301945	 83.717370	-0.561742	-2.327994	 37.088940	-0.200178	-1.725327	-21.339570	-178.995000	-1.804150	-38.985200	-0.694229	-1.414041	 86.422150	 0.927886	 2.395185	 25.609950	-0.059062	 7.710412	 4.339952	-1.577307	 13.355350	 3.125000	-1.973180	 15.833520	 1.318020	 0.871055	-100.969100	 88.613230	-168.303500	 53.445790	 68.468030	-63.075380	-4.810694	-4.229180	-16.796260	 8.163370	-2.278821	-5.299679	-3.286751	-11.739500	 4.146542	-5.213516	-0.193813	 3.566525	-1.378229	 35.397820	-2.634230	 0.768152	 1.544492	 0.743969	 4.447454	 2.649039	 0.011142	 96.848780	 87.952160	 169.989500	-52.114970	 75.645970	 65.210530	-2.413759	-12.653820	 23.098230	-25.841480	-3.176123	 9.570336	-7.324906	-4.240808	-36.821240	 5.070815	-0.697434	-9.399699	-2.350882	 35.473990	 5.254307
-9.291251	-31.678350	 0.900118	-33.959350	 8.871157	 2.755384	 5.146682	-19.672660	 175.308100	-4.086532	-36.345830	-1.171405	-1.399256	 83.775020	-0.518486	-2.323313	 37.586140	-0.212714	-1.941389	-19.385430	-179.126900	-1.117266	-36.354590	-0.439901	-1.407606	 86.489040	 1.298449	 2.390496	 26.962140	-0.030575	 7.179739	 3.861041	-1.562293	 13.133260	 3.222341	-1.948924	 15.819990	 1.450845	 0.851897	-99.801690	 88.574540	-169.716000	 52.704200	 69.035060	-62.231420	-4.952310	-4.154028	-15.903060	 8.464028	-2.282258	-5.295539	-3.316133	-11.950160	 4.074328	-5.213516	-0.193813	 3.566525	-1.378229	 35.397820	-2.634230	 0.726966	 1.810306	 0.953283	 4.584704	 3.309292	-0.236728	 97.509930	 88.093090	 169.318800	-52.902310	 75.754480	 65.341770	-2.563367	-12.514920	 23.023550	-25.628360	-3.137056	 9.582613	-7.175797	-4.109526	-36.536920	 5.070815	-0.697434	-9.399699	-2.350882	 35.473990	 5.254307
-9.296866	-31.679400	 0.900458	-34.027890	 8.860113	 3.197430	 4.921154	-19.276140	 174.717700	-4.108107	-35.905900	-1.322334	-1.481969	 83.475620	-0.677776	-2.322481	 37.672490	-0.214909	-2.341094	-18.527830	-179.758700	-1.302400	-34.944340	-0.823832	-1.878628	 86.248560	 1.237538	 2.396624	 25.140450	-0.068844	 6.830489	 3.450128	-2.168141	 13.188330	 3.186324	-2.048102	 15.807320	 1.504084	 0.843833	-98.727820	 88.391240	-170.797800	 52.318790	 69.886390	-62.202630	-5.672509	-4.159014	-15.653280	 8.624995	-2.262524	-5.299236	-3.347389	-12.140440	 3.998691	-5.213516	-0.193813	 3.566525	-1.378229	 35.397820	-2.634230	 0.852444	 2.094610	 1.135596	 4.573842	 3.557209	-0.146032	 98.427540	 88.306620	 168.484700	-53.308090	 75.850720	 65.271220	-2.526439	-12.348870	 23.023210	-25.285390	-3.081087	 9.599938	-7.061916	-3.887966	-36.409730	 5.070815	-0.697434	-9.399699	-2.350882	 35.473990	 5.254307
-9.300961	-31.680020	 0.901062	-34.953640	 8.906490	 3.078236	 4.988496	-18.741460	 174.937900	-4.528821	-35.192100	-1.480072	-1.542197	 83.088830	-0.909113	-2.323882	 37.526520	-0.211204	-2.465861	-18.483720	-179.652600	-1.859979	-34.465880	-1.202311	-2.499923	 86.053050	 1.300190	 2.397538	 24.826410	-0.075363	 6.617533	 3.051565	-1.886455	 13.365710	 2.970272	-1.893262	 15.761530	 1.277833	 0.872593	-99.077520	 88.400150	-170.351000	 52.571640	 70.384730	-62.249880	-7.053960	-4.014984	-16.590880	 7.445438	-2.196024	-5.332793	-3.877225	-12.954210	 2.780098	-5.213516	-0.193813	 3.566525	-1.378229	 35.397820	-2.634230	 1.057170	 2.256883	 1.053358	 4.508623	 3.620521	-0.389667	 97.809520	 88.295440	 169.285400	-53.075120	 75.817550	 64.892820	-2.489472	-12.197200	 23.037310	-24.958260	-3.003770	 9.621199	-6.983469	-3.684706	-36.359800	 5.070815	-0.697434	-9.399699	-2.350882	 35.473990	 5.254307
-9.303915	-31.679780	 0.902060	-35.433880	 8.876458	 2.573800	 5.121057	-18.069720	 175.356700	-4.755392	-34.356670	-1.465281	-1.635299	 82.870770	-0.886773	-2.326151	 37.287240	-0.205159	-2.470210	-18.611030	-179.313600	-1.903537	-34.546590	-1.206338	-2.667958	 86.052960	 1.467763	 2.396552	 25.165970	-0.068311	 6.005511	 3.128995	-1.346402	 13.236170	 2.772647	-1.619922	 15.623820	 1.001125	 0.902720	-99.424640	 88.442040	-169.967600	 54.678600	 69.533810	-64.053090	-7.367039	-3.762735	-17.888490	 5.797033	-2.113642	-5.373156	-3.685250	-12.707410	 3.217623	-5.213516	-0.193813	 3.566525	-1.378229	 35.397820	-2.634230	 1.110566	 2.178668	 0.953931	 4.508965	 3.757389	-0.587853	 97.621540	 88.239200	 169.433900	-52.567320	 75.675860	 64.542880	-2.405533	-12.027600	 23.058310	-24.589590	-2.906579	 9.648111	-6.972270	-3.632330	-36.370350	 5.070815	-0.697434	-9.399699	-2.350882	 35.473990	 5.254307
-9.306218	-31.679810	 0.903170	-35.375030	 8.916333	 2.392373	 5.123625	-17.774380	 175.448400	-4.716012	-33.812790	-1.401815	-1.722481	 82.793580	-0.766285	-2.327175	 37.176670	-0.202385	-2.512684	-18.520580	-179.298400	-1.738992	-34.770390	-1.132757	-2.736397	 86.057530	 1.650658	 2.395458	 25.524560	-0.060840	 4.973214	 3.082432	-1.384138	 12.926770	 2.687328	-1.484828	 15.433570	 0.856037	 0.911189	-98.447950	 88.316700	-171.050600	 56.990490	 68.254300	-66.589220	-6.309472	-3.760566	-18.662940	 5.312137	-2.035263	-5.399991	-3.420552	-11.683170	 3.837091	-5.213516	-0.193813	 3.566525	-1.378229	 35.397820	-2.634230	 1.093732	 2.242234	 0.983502	 4.523574	 3.771038	-0.348905	 98.677060	 88.367210	 168.275500	-51.369660	 75.525730	 63.519440	-2.128011	-11.820240	 23.207770	-24.020440	-2.783811	 9.682531	-7.023159	-3.713683	-36.440990	 5.070815	-0.697434	-9.399699	-2.350882	 35.473990	 5.254307
-9.308006	-31.680100	 0.903984	-35.073430	 8.941624	 2.273849	 5.109491	-17.658400	 175.462200	-4.530741	-33.556690	-1.289096	-1.675902	 82.757360	-0.670347	-2.328005	 37.088300	-0.200158	-2.549142	-18.409670	-179.300000	-1.541055	-34.780530	-1.038691	-2.773045	 86.047200	 1.826564	 2.394689	 25.764380	-0.055824	 3.785293	 2.854799	-1.428825	 12.512500	 2.595693	-1.447073	 15.165570	 0.721415	 0.913040	-97.808230	 88.271390	-171.841900	 58.144740	 67.607630	-68.244900	-6.120923	-3.706119	-19.278150	 4.756801	-1.953443	-5.428213	-3.258809	-11.041000	 4.226628	-5.213516	-0.193813	 3.566525	-1.378229	 35.397820	-2.634230	 0.989722	 2.291902	 1.046914	 4.520658	 3.835581	-0.272392	 99.847010	 88.493900	 167.022100	-49.660910	 75.412860	 61.914190	-1.617999	-11.597500	 23.531490	-23.254900	-2.650271	 9.718388	-7.061913	-3.702322	-36.550300	 5.070815	-0.697434	-9.399699	-2.350882	 35.473990	 5.254307
-9.309217	-31.680210	 0.904660	-34.679890	 8.915761	 2.124186	 5.100937	-17.560250	 175.468900	-4.273250	-33.418020	-1.142867	-1.729435	 82.752810	-0.400892	-2.328535	 37.030570	-0.198711	-2.673607	-18.273560	-179.251600	-1.332486	-34.731580	-0.981324	-2.841451	 86.029750	 1.980186	 2.394735	 25.748540	-0.056162	 2.503723	 2.742134	-1.347993	 12.041250	 2.434296	-1.467746	 14.814670	 0.519189	 0.917867	-97.664710	 88.312170	-172.093200	 58.785510	 67.181350	-69.300520	-6.835963	-3.432187	-20.132650	 3.447237	-1.854018	-5.464363	-3.387148	-10.918100	 3.927549	-5.213516	-0.193813	 3.566525	-1.378229	 35.397820	-2.634230	 0.830132	 2.228972	 1.050706	 4.485928	 3.976772	-0.430796	 99.838220	 88.449720	 166.936100	-47.874190	 75.283650	 60.290870	-0.943847	-11.363850	 24.004900	-22.335510	-2.500933	 9.756918	-7.098639	-3.635709	-36.696510	 5.070815	-0.697434	-9.399699	-2.350882	 35.473990	 5.254307
-9.310351	-31.680450	 0.905144	-34.290510	 8.911558	 2.058156	 5.030343	-17.372210	 175.476400	-4.041154	-33.250400	-1.042358	-1.786864	 82.780120	-0.202999	-2.329684	 36.905900	-0.195593	-2.789204	-18.067380	-179.327700	-1.100609	-34.662110	-0.915030	-2.921290	 86.021480	 2.159494	 2.394727	 25.752630	-0.056076	 0.989618	 2.599178	-1.279482	 11.530770	 2.186603	-1.541378	 14.344760	 0.231730	 0.924472	-98.013100	 88.431400	-171.800700	 59.091960	 66.426880	-69.964180	-7.311282	-3.174281	-21.731830	 1.977181	-1.714963	-5.508985	-3.304337	-10.634800	 4.128118	-5.213516	-0.193813	 3.566525	-1.378229	 35.397820	-2.634230	 0.654980	 2.114724	 1.080738	 4.380736	 4.067408	-0.720746	 99.326570	 88.347560	 167.380400	-45.812550	 75.125820	 58.451220	 0.111720	-11.029840	 24.745580	-20.982840	-2.307528	 9.805844	-7.145187	-3.539852	-36.891070	 5.070815	-0.697434	-9.399699	-2.350882	 35.473990	 5.254307
-9.310818	-31.680550	 0.905397	-34.033780	 8.956002	 2.058822	 5.019612	-17.326080	 175.449100	-3.895663	-33.104270	-0.961668	-1.843397	 82.832290	-0.035149	-2.330506	 36.815950	-0.193342	-2.813200	-17.991250	-179.288900	-0.945355	-34.599490	-0.837183	-2.981493	 86.022560	 2.336799	 2.394586	 25.796820	-0.055148	-0.432746	 2.433093	-1.238103	 11.115940	 1.967050	-1.593172	 13.888440	-0.016571	 0.924882	-98.409460	 88.517210	-171.411400	 58.878700	 65.750060	-70.226750	-7.818472	-2.937098	-23.606620	 0.632418	-1.571412	-5.549653	-3.441187	-10.707830	 3.803620	-5.213516	-0.193813	 3.566525	-1.378229	 35.397820	-2.634230	 0.542258	 2.128250	 0.938717	 4.222778	 4.025932	-0.715118	 98.803630	 88.258420	 167.885400	-44.244690	 74.960370	 57.181780	 1.356922	-10.633830	 25.606570	-19.429170	-2.109102	 9.853664	-7.180123	-3.492670	-37.018390	 5.070815	-0.697434	-9.399699	-2.350882	 35.473990	 5.254307
